<svg data-v-0dd9719b="" version="1.0" xmlns="http://www.w3.org/2000/svg" xmlns:xlink="http://www.w3.org/1999/xlink" width="100%" height="100%" viewBox="0 0 340.000000 250.000000" preserveAspectRatio="xMidYMid meet" color-interpolation-filters="sRGB" style="margin: auto;"> <rect data-v-0dd9719b="" x="0" y="0" width="100%" height="100%" fill="#fff" fill-opacity="1" class="background"></rect> <rect data-v-0dd9719b="" x="0" y="0" width="100%" height="100%" fill="url(#watermark)" fill-opacity="1" class="watermarklayer"></rect> <g data-v-0dd9719b="" fill="#333" class="icon-text-wrapper icon-svg-group iconsvg" transform="translate(48.33634948730469,95.38119316101074)"><g class="iconsvg-imagesvg" transform="translate(0,0)"><g><rect fill="#333" fill-opacity="0" stroke-width="2" x="0" y="0" width="60" height="59.23761193440422" class="image-rect"></rect> <svg x="0" y="0" width="60" height="59.23761193440422" filtersec="colorsb9124085421" class="image-svg-svg primary" style="overflow: visible;"><svg xmlns="http://www.w3.org/2000/svg" viewBox="0.05341938138008118 0 101.28657531738281 100.00006866455078"><path d="M50.72 100a50.73 50.73 0 0 0 48.54-35.72C72.44 62.5 52.06 77.54 36.56 98a51.69 51.69 0 0 0 14.16 2zM42.16 0a50.3 50.3 0 0 0-5.6 98c0-.64-.07-1.24-.07-1.85C1.91 79.52 24.74 21.89 42.16 0z" fill="#f60"></path><path d="M63.88 1C28.63 29.34 16.65 59.35 33.47 91.41v.06q1 2 2.22 3.93C24.17 58.58 41.89 31 83.15 10.94A50 50 0 0 0 63.88 1z" fill="#333"></path><path d="M96.84 28.67C56 38.07 34.41 60.19 36.56 98c12.38-31.72 33-50.35 64.78-51.13a49.31 49.31 0 0 0-4.5-18.2z" fill="#333"></path></svg></svg> <!----></g></g> <g transform="translate(67,5.312557220458984)"><g data-gra="path-name" fill-rule="" class="tp-name iconsvg-namesvg" transform="translate(0,0)"><g transform="scale(1)"><g><path d="M33.59-15.23L33.59-15.23 19.33-15.23Q21.82-5 35.03-0.43L35.03-0.43 34.99 0Q32.26 0.43 31.82 3.02L31.82 3.02Q28.58 1.48 26.14-0.65L26.14-0.65Q23.72-2.77 22.28-5.18 20.84-7.6 20.02-9.83L20.02-9.83Q19.22-12.1 18.76-14.69L18.76-14.69Q18.25-11.59 17.21-9.18L17.21-9.18Q16.2-6.77 14.26-4.46L14.26-4.46Q12.35-2.2 9.18-0.32 6.01 1.55 1.51 3.06L1.51 3.06 1.15 2.48Q8.28-0.86 11.34-5.08 14.4-9.29 15.16-15.23L15.16-15.23 2.41-15.23 2.12-16.27 15.26-16.27Q15.48-18.36 15.55-25.67L15.55-25.67 4.54-25.67 4.25-26.71 26.21-26.71Q26.32-29.45 29.41-29.45L29.41-29.45Q32.51-28.98 32.4-26.24L32.4-26.24Q32.26-25.67 31.43-25.67L31.43-25.67 19.4-25.67Q19.26-18.83 18.97-16.27L18.97-16.27 28.3-16.27Q28.4-19.08 31.57-19.08L31.57-19.08Q34.74-18.61 34.63-15.8L34.63-15.8Q34.49-15.23 33.59-15.23ZM39.71-29.66L39.71-29.66 40-29.95Q44.75-29.41 45.97-27.07L45.97-27.07Q46.69-25.7 45.83-24.73L45.83-24.73Q44.96-23.69 43.52-24.41L43.52-24.41Q43.42-24.48 43.34-24.52L43.34-24.52Q42.62-27.11 39.71-29.66ZM36.97-21.6L36.97-21.6 37.3-21.89Q41.76-21.31 42.88-19.08L42.88-19.08Q43.56-17.78 42.7-16.85L42.7-16.85Q41.8-15.88 40.43-16.7L40.43-16.7Q40.32-16.74 40.25-16.81L40.25-16.81Q39.92-18.04 38.99-19.37L38.99-19.37Q38.05-20.74 36.97-21.6ZM46.4-23.65L46.4-23.65 47.02-23.47Q43.45-11.02 43.09-9.36L43.09-9.36Q42.59-7.31 42.62-6.08L42.62-6.08Q42.66-5.47 43.27-3.46L43.27-3.46Q43.88-1.48 43.81 0.29L43.81 0.29Q43.78 1.58 43.09 2.3L43.09 2.3Q42.44 3.06 41.33 3.06L41.33 3.06Q40.72 3.06 40.28 2.59 39.85 2.12 39.74 1.26L39.74 1.26Q40.18-1.55 40.07-3.67L40.07-3.67Q39.96-5.83 39.35-6.23L39.35-6.23Q38.74-6.66 37.58-6.77L37.58-6.77 37.58-7.52 39.13-7.52Q39.42-7.52 39.53-7.56 39.64-7.6 39.78-7.74 39.92-7.88 40.07-8.24L40.07-8.24Q40.75-9.54 46.4-23.65ZM58.36-19.55L58.36-15.55 63.65-15.55 63.65-19.55 58.36-19.55ZM63.65-24.55L58.36-24.55 58.36-20.59 63.65-20.59 63.65-24.55ZM64.15-12.92L64.15-12.92 63.65-12.92 63.65-14.51 58.36-14.51 58.36-10.33 63.43-10.33Q63.5-12.82 66.28-12.82L66.28-12.82Q69.05-12.35 68.98-9.86L68.98-9.86Q68.83-9.29 68-9.29L68-9.29 58.36-9.29 58.36-4.86 65.23-4.86Q65.34-7.45 68.18-7.45L68.18-7.45Q71.03-6.98 70.92-4.39L70.92-4.39Q70.78-3.82 69.95-3.82L69.95-3.82 58.36-3.82 58.36 1.76Q58.36 2.12 57.42 2.56L57.42 2.56Q56.52 3.02 55.62 3.02L55.62 3.02 54.97 3.02 54.97-3.82 45.32-3.82 45.04-4.86 54.97-4.86 54.97-9.29 46.66-9.29 46.37-10.33 54.97-10.33 54.97-14.51 47.56-14.51 47.23-15.55 54.97-15.55 54.97-19.55 46.55-19.55 46.26-20.59 54.97-20.59 54.97-24.55 47.84-24.55 47.52-25.6 54.97-25.6 54.97-30.2 58.36-29.7 58.36-25.6 63.29-25.6Q63.47-27.32 66.02-27.32L66.02-27.32Q68.51-26.42 68.33-24.7L68.33-24.7Q67.9-24.19 66.82-23.98L66.82-23.98 66.82-20.59 67.32-20.59Q67.28-22.75 69.41-22.75L69.41-22.75Q71.53-22.28 71.57-20.12L71.57-20.12Q71.46-19.55 70.67-19.55L70.67-19.55 66.82-19.55 66.82-13.79Q66.78-13.61 65.81-13.25L65.81-13.25Q64.84-12.92 64.15-12.92ZM75.53-29.92L75.53-29.92 75.85-30.17Q80.42-29.41 81.58-27.11L81.58-27.11Q82.26-25.7 81.36-24.77 80.46-23.83 79.09-24.62L79.09-24.62Q78.98-24.66 78.91-24.73L78.91-24.73Q78.26-27.25 75.53-29.92ZM73.04-21.85L73.04-21.85 73.37-22.1Q77.72-21.49 78.77-19.3L78.77-19.3Q79.38-18 78.52-17.1L78.52-17.1Q77.58-16.13 76.25-16.92L76.25-16.92Q76.14-16.96 76.07-17.03L76.07-17.03Q75.85-18.29 74.95-19.62L74.95-19.62Q74.09-20.99 73.04-21.85ZM83.3-25.78L83.3-25.78 83.95-25.6Q79.42-11.2 79.02-9.58L79.02-9.58Q78.48-7.49 78.48-6.16L78.48-6.16Q78.48-5.54 79.06-3.49L79.06-3.49Q79.67-1.48 79.6 0.29L79.6 0.29Q79.52 1.55 78.88 2.27L78.88 2.27Q78.26 3.02 77.26 3.02L77.26 3.02Q76 3.02 75.78 1.15L75.78 1.15Q76.21-1.66 76.07-3.78 75.92-5.9 75.31-6.3L75.31-6.3Q74.74-6.7 73.55-6.8L73.55-6.8 73.55-7.6 75.1-7.6Q75.49-7.6 75.64-7.7L75.64-7.7Q75.82-7.81 76.07-8.35L76.07-8.35Q76.75-9.76 83.3-25.78ZM104.47-26.5L104.47-26.5Q107.03-25.56 106.81-23.58L106.81-23.58Q106.31-23.08 105.26-22.93L105.26-22.93Q105.12-11.41 104.65-5.87L104.65-5.87Q104.18-0.36 102.96 1.12L102.96 1.12Q101.3 3.02 98.17 3.02L98.17 3.02Q98.17 1.3 97.42 0.65L97.42 0.65Q96.55-0.14 93.46-0.72L93.46-0.72 93.49-1.3Q97.45-0.9 98.89-0.9L98.89-0.9Q99.83-0.9 100.3-1.4L100.3-1.4Q101.2-2.27 101.56-7.6L101.56-7.6Q101.95-12.96 102.06-23.47L102.06-23.47 87.88-23.47 87.48-22.9Q84.82-19.15 82.4-17.17L82.4-17.17 82.01-17.57Q83.81-20.12 85.25-23.72L85.25-23.72Q86.69-27.36 87.37-30.46L87.37-30.46 90.58-28.94Q89.78-26.64 88.52-24.52L88.52-24.52 101.66-24.52Q101.88-26.5 104.47-26.5ZM87.3-22.61L87.3-22.61 90.07-21.49Q89.39-19.55 88.6-18.43L88.6-18.43 94.79-18.43Q94.79-20.88 97.27-20.88L97.27-20.88Q99.76-20.41 99.76-17.96L99.76-17.96Q99.61-17.39 98.78-17.39L98.78-17.39 92.92-17.39 92.92-13.46 96.34-13.46Q96.34-15.91 98.86-15.91L98.86-15.91Q101.41-15.44 101.41-13L101.41-13Q101.27-12.42 100.44-12.42L100.44-12.42 92.92-12.42 92.92-4.93 96.12-4.93 96.12-10.84 98.89-10.44 98.89-2.92Q98.89-2.7 98.1-2.38L98.1-2.38Q97.34-2.09 96.66-2.09L96.66-2.09 96.12-2.09 96.12-3.89 87.05-3.89Q86.98-2.66 84.96-2.66L84.96-2.66Q82.91-3.13 82.98-4.36L82.98-4.36Q83.38-4.82 83.99-5.15L83.99-5.15 83.99-10.98 86.8-10.55 86.8-4.93 89.96-4.93 89.96-12.42 82.22-12.42 81.94-13.46 89.96-13.46 89.96-17.39 87.8-17.39Q86.15-15.23 84.24-13.79L84.24-13.79 83.74-14.15Q85.86-17.28 87.3-22.61ZM120.82-7.96L131.58-7.96 132.41-8.82Q128.92-10.15 126.32-12.1L126.32-12.1Q122.87-10.12 119.05-8.64L119.05-8.64 120.82-7.96ZM120.35-6.91L120.35-0.54 131.94-0.54 131.94-6.91 120.35-6.91ZM130.5-19.76L130.5-19.76 122.26-19.76Q121.93-19.4 121.28-18.76L121.28-18.76Q123.23-16.56 125.89-14.94L125.89-14.94Q128.84-17.39 130.5-19.76ZM134.24-22.86L134.24-22.86Q137.12-21.53 136.62-19.48L136.62-19.48Q136.15-19.12 134.75-19.01L134.75-19.01Q132.59-16.24 128.66-13.57L128.66-13.57Q134.39-11.05 142.96-10.12L142.96-10.12 142.92-9.68Q140.65-9.18 140.08-6.59L140.08-6.59Q138.28-6.95 136.04-7.56L136.04-7.56 136.69-7.09Q136.33-6.66 135.36-6.44L135.36-6.44 135.36 1.84Q135.32 2.05 134.32 2.38L134.32 2.38Q133.31 2.74 132.52 2.74L132.52 2.74 131.94 2.74 131.94 0.5 120.35 0.5 120.35 1.87Q120.35 2.02 120.02 2.23L120.02 2.23Q119.7 2.48 119.02 2.7L119.02 2.7Q118.37 2.92 117.61 2.92L117.61 2.92 117 2.92 117-7.88Q113-6.52 109.51-5.83L109.51-5.83 109.26-6.3Q117.72-8.89 124.27-13.75L124.27-13.75Q122.15-15.7 120.67-18.14L120.67-18.14Q116.75-14.47 111.49-12.38L111.49-12.38 111.13-12.85Q113.9-14.65 116.57-17.78L116.57-17.78Q119.27-20.92 121.03-24.55L121.03-24.55 124.06-22.57Q123.41-21.2 123.12-20.81L123.12-20.81 130.72-20.81Q131.22-22.86 134.24-22.86ZM137.63-24.55L137.63-24.55 114.73-24.55Q114.98-21.02 112.79-19.62L112.79-19.62Q112.03-19.08 111.06-19.22L111.06-19.22Q110.12-19.37 109.8-20.16L109.8-20.16Q109.3-21.67 111.02-22.61L111.02-22.61Q112.07-23.15 112.86-24.52L112.86-24.52Q113.65-25.92 113.58-27.43L113.58-27.43 114.12-27.47Q114.48-26.42 114.62-25.6L114.62-25.6 126.29-25.6Q125.78-25.67 125.28-25.99L125.28-25.99Q125.1-27.11 124.34-28.3 123.59-29.48 122.65-30.2L122.65-30.2 122.94-30.46Q127.19-30.42 128.23-28.37L128.23-28.37Q128.88-27.14 127.98-26.14L127.98-26.14Q127.55-25.7 126.97-25.6L126.97-25.6 137.38-25.6Q137.66-27.5 140.33-27.5L140.33-27.5Q142.85-26.21 142.56-24.3L142.56-24.3Q142.16-23.9 141.19-23.87L141.19-23.87Q139.03-21.38 137.05-19.94L137.05-19.94 136.66-20.2Q137.2-22.25 137.63-24.55ZM155.56-16.2L155.02-16.2 155.02-15.23Q155.34-15.7 155.56-16.2L155.56-16.2ZM169.13-22.75L169.13-27.07 155.02-27.07 155.02-22.75 169.13-22.75ZM155.02-21.71L155.02-17.24 169.13-17.24 169.13-21.71 155.02-21.71ZM175.18-13.82L175.18-13.82Q177.77-12.78 177.44-10.98L177.44-10.98Q177.01-10.51 175.97-10.4L175.97-10.4Q174.71-0.4 171.65 1.8L171.65 1.8Q169.7 3.06 167 3.02L167 3.02Q167 1.3 166.28 0.68L166.28 0.68Q165.46-0.11 162.72-0.61L162.72-0.61 162.72-1.15Q166.75-0.79 167.9-0.79L167.9-0.79Q168.88-0.79 169.42-1.19L169.42-1.19Q170.35-1.84 171.14-4.5L171.14-4.5Q171.97-7.16 172.44-10.98L172.44-10.98 169.42-10.98Q165.35-1.01 153.25 3.2L153.25 3.2 152.93 2.7Q162-1.94 165.38-10.98L165.38-10.98 162.61-10.98Q158.18-3.92 148.18 0.14L148.18 0.14 147.85-0.36Q151.16-2.3 153.97-5.11 156.78-7.92 158.62-10.98L158.62-10.98 155.63-10.98Q151.02-7.06 145.94-5.22L145.94-5.22 145.62-5.62Q148.32-7.31 150.8-9.9L150.8-9.9Q153.32-12.49 154.91-15.05L154.91-15.05Q154.55-14.72 153.72-14.44L153.72-14.44Q152.93-14.15 152.1-14.15L152.1-14.15 151.63-14.15 151.63-28.12 168.77-28.12Q169.02-29.92 171.68-29.92L171.68-29.92Q174.31-28.98 174.06-27.18L174.06-27.18Q173.59-26.68 172.55-26.46L172.55-26.46 172.55-15.44Q172.51-15.26 171.47-14.87L171.47-14.87Q170.46-14.51 169.67-14.51L169.67-14.51 169.13-14.51 169.13-16.2 157.1-16.2 160.78-15.12Q160.56-14.44 159.08-14.44L159.08-14.44Q158.33-13.5 156.78-12.02L156.78-12.02 172.19-12.02Q172.51-13.82 175.18-13.82Z" transform="translate(-1.149999976158142, 30.459999084472656)"></path></g> <!----> <!----> <!----> <!----> <!----> <!----> <!----></g></g> <g data-gra="path-slogan" fill-rule="" class="tp-slogan iconsvg-slogansvg" fill="#333" transform="translate(5,39.65999984741211)"><rect x="0" height="1" y="3.9750003814697266" width="28.998653411865234"></rect> <rect height="1" y="3.9750003814697266" width="28.998653411865234" x="137.3286476135254"></rect> <g transform="translate(31.998653411865234,0)"><g transform="scale(1)"><path d="M3.09-7.59L0.19-7.59L0.19-8.58L7.13-8.58L7.13-7.59L4.22-7.59L4.22 0L3.09 0L3.09-7.59ZM8.34-8.58L9.52-8.58L9.52 0L8.34 0L8.34-8.58ZM17.16 0L16.31-2.48L12.84-2.48L11.95 0L10.78 0L14.02-8.58L15.33-8.58L18.42 0L17.16 0ZM14.58-7.31L13.22-3.52L15.89-3.52L14.63-7.31L14.58-7.31ZM20.86-8.58L25.17-1.64L25.17-8.58L26.30-8.58L26.30 0L24.98 0L20.63-6.94L20.58-6.94L20.58 0L19.45 0L19.45-8.58L20.86-8.58ZM27.38-1.92L27.38-2.77L28.45-2.77L28.45-2.16Q28.45-0.75 29.77-0.75L29.77-0.75Q31.13-0.75 31.13-2.25L31.13-2.25L31.13-8.58L32.30-8.58L32.30-2.30Q32.25 0.09 29.81 0.14L29.81 0.14Q27.52 0.09 27.38-1.92L27.38-1.92ZM34.27-8.58L35.44-8.58L35.44 0L34.27 0L34.27-8.58ZM38.81-8.58L43.13-1.64L43.13-8.58L44.25-8.58L44.25 0L42.94 0L38.58-6.94L38.53-6.94L38.53 0L37.41 0L37.41-8.58L38.81-8.58ZM51.56-7.59L48.66-7.59L48.66-8.58L55.59-8.58L55.59-7.59L52.69-7.59L52.69 0L51.56 0L51.56-7.59ZM62.30 0L61.45-2.48L57.98-2.48L57.09 0L55.92 0L59.16-8.58L60.47-8.58L63.56 0L62.30 0ZM59.72-7.31L58.36-3.52L61.03-3.52L59.77-7.31L59.72-7.31ZM71.39-4.27L71.39-4.27Q71.20-7.64 68.39-7.83L68.39-7.83Q65.53-7.69 65.39-4.27L65.39-4.27Q65.53-0.94 68.39-0.80L68.39-0.80Q71.20-0.98 71.39-4.27ZM72.56-4.27L72.56-4.27Q72.28 0 68.39 0.14L68.39 0.14Q64.45 0 64.17-4.27L64.17-4.27Q64.41-8.72 68.39-8.81L68.39-8.81Q72.28-8.67 72.56-4.27ZM76.45-4.31L75.09-3.05L75.09 0L73.92 0L73.92-8.58L75.09-8.58L75.09-4.41L79.27-8.58L80.91-8.58L77.30-5.11L81 0L79.45 0L76.45-4.31ZM83.20-1.03L88.36-1.03L88.36 0L82.03 0L82.03-8.58L88.27-8.58L88.27-7.59L83.20-7.59L83.20-4.92L87.89-4.92L87.89-3.89L83.20-3.89L83.20-1.03ZM100.13-8.58L96.89-3.47L96.89 0L95.72 0L95.72-3.47L92.48-8.58L93.84-8.58L96.28-4.45L98.77-8.58L100.13-8.58ZM101.34-8.58L102.52-8.58L102.52 0L101.34 0L101.34-8.58Z" transform="translate(-0.1875, 8.8125)"></path></g></g></g></g></g><defs v-gra="od"></defs></svg>